<?xml version="1.0" encoding="UTF-8"?><svg id="Layer_2" xmlns="http://www.w3.org/2000/svg" xmlns:xlink="http://www.w3.org/1999/xlink" viewBox="0 0 1280.15 460.22"><defs><style>.cls-1{stroke:url(#linear-gradient-188);stroke-dasharray:0 0 2 2;}.cls-1,.cls-2,.cls-3,.cls-4,.cls-5,.cls-6,.cls-7,.cls-8,.cls-9,.cls-10,.cls-11,.cls-12,.cls-13,.cls-14,.cls-15,.cls-16,.cls-17,.cls-18,.cls-19,.cls-20,.cls-21,.cls-22,.cls-23,.cls-24,.cls-25,.cls-26,.cls-27,.cls-28,.cls-29,.cls-30,.cls-31,.cls-32,.cls-33,.cls-34,.cls-35,.cls-36,.cls-37,.cls-38,.cls-39,.cls-40,.cls-41,.cls-42,.cls-43,.cls-44,.cls-45,.cls-46,.cls-47,.cls-48,.cls-49,.cls-50,.cls-51,.cls-52,.cls-53,.cls-54,.cls-55,.cls-56,.cls-57,.cls-58,.cls-59,.cls-60,.cls-61,.cls-62,.cls-63,.cls-64,.cls-65,.cls-66,.cls-67,.cls-68,.cls-69,.cls-70,.cls-71,.cls-72,.cls-73,.cls-74,.cls-75,.cls-76,.cls-77,.cls-78,.cls-79,.cls-80,.cls-81,.cls-82,.cls-83,.cls-84,.cls-85,.cls-86,.cls-87,.cls-88,.cls-89,.cls-90,.cls-91,.cls-92,.cls-93,.cls-94,.cls-95,.cls-96,.cls-97,.cls-98,.cls-99,.cls-100,.cls-101,.cls-102,.cls-103,.cls-104,.cls-105,.cls-106,.cls-107,.cls-108,.cls-109,.cls-110,.cls-111,.cls-112,.cls-113,.cls-114,.cls-115,.cls-116,.cls-117,.cls-118,.cls-119,.cls-120,.cls-121,.cls-122,.cls-123,.cls-124,.cls-125,.cls-126,.cls-127,.cls-128,.cls-129,.cls-130,.cls-131,.cls-132,.cls-133,.cls-134,.cls-135,.cls-136,.cls-137,.cls-138,.cls-139,.cls-140,.cls-141,.cls-142,.cls-143,.cls-144,.cls-145,.cls-146,.cls-147,.cls-148,.cls-149,.cls-150,.cls-151,.cls-152,.cls-153,.cls-154,.cls-155,.cls-156,.cls-157,.cls-158,.cls-159,.cls-160,.cls-161,.cls-162,.cls-163,.cls-164,.cls-165,.cls-166,.cls-167,.cls-168,.cls-169,.cls-170,.cls-171,.cls-172,.cls-173,.cls-174,.cls-175,.cls-176,.cls-177,.cls-178,.cls-179,.cls-180,.cls-181,.cls-182,.cls-183,.cls-184,.cls-185,.cls-186,.cls-187,.cls-188,.cls-189,.cls-190,.cls-191,.cls-192,.cls-193,.cls-194,.cls-195,.cls-196,.cls-197,.cls-198,.cls-199,.cls-200,.cls-201,.cls-202,.cls-203,.cls-204,.cls-205,.cls-206,.cls-207,.cls-208,.cls-209,.cls-210,.cls-211,.cls-212,.cls-213,.cls-214,.cls-215,.cls-216,.cls-217,.cls-218,.cls-219{fill:none;stroke-miterlimit:10;}.cls-2{stroke:url(#linear-gradient-205);}.cls-3{stroke:url(#linear-gradient-3);}.cls-4{stroke:url(#linear-gradient-65);stroke-dasharray:0 0 2 2;}.cls-5{stroke:url(#linear-gradient-95);stroke-dasharray:0 0 2 2;}.cls-6{stroke:url(#linear-gradient-129);}.cls-7{stroke:url(#linear-gradient-28);}.cls-8{stroke:url(#linear-gradient-104);stroke-dasharray:0 0 2 2;}.cls-9{stroke:url(#linear-gradient-127);}.cls-10{stroke:url(#linear-gradient-11);stroke-dasharray:0 0 2 2;}.cls-11{stroke:url(#linear-gradient-197);stroke-dasharray:0 0 2 2;}.cls-12{stroke:url(#linear-gradient-64);}.cls-13{stroke:url(#linear-gradient-219);}.cls-14{stroke:url(#linear-gradient-135);}.cls-15{stroke:url(#linear-gradient-68);stroke-dasharray:0 0 2 2;}.cls-16{stroke:url(#linear-gradient-9);}.cls-17{stroke:url(#linear-gradient-37);}.cls-18{stroke:url(#linear-gradient-119);stroke-dasharray:0 0 2 2;}.cls-19{stroke:url(#linear-gradient-187);}.cls-20{stroke:url(#linear-gradient-76);}.cls-21{stroke:url(#linear-gradient-29);stroke-dasharray:0 0 2 2;}.cls-22{stroke:url(#linear-gradient-210);}.cls-23{stroke:url(#linear-gradient-101);stroke-dasharray:0 0 2 2;}.cls-24{stroke:url(#linear-gradient-58);}.cls-25{stroke:url(#linear-gradient-22);}.cls-26{stroke:url(#linear-gradient-113);stroke-dasharray:0 0 2 2;}.cls-27{stroke:url(#linear-gradient-186);}.cls-28{stroke:url(#linear-gradient-125);stroke-dasharray:0 0 2 2;}.cls-29{stroke:url(#linear-gradient-19);}.cls-30{stroke:url(#linear-gradient-106);}.cls-31{stroke:url(#linear-gradient-184);}.cls-32{stroke:url(#linear-gradient-161);stroke-dasharray:0 0 2 2;}.cls-33{stroke:url(#linear-gradient-169);}.cls-34{stroke:url(#linear-gradient-120);}.cls-35{stroke:url(#linear-gradient-133);}.cls-36{stroke:url(#linear-gradient-70);}.cls-37{stroke:url(#linear-gradient-200);stroke-dasharray:0 0 2 2;}.cls-38{stroke:url(#linear-gradient-212);stroke-dasharray:0 0 2 2;}.cls-39{stroke:url(#linear-gradient-139);}.cls-40{stroke:url(#linear-gradient-89);stroke-dasharray:0 0 2 2;}.cls-41{stroke:url(#linear-gradient-176);stroke-dasharray:0 0 2 2;}.cls-42{stroke:url(#linear-gradient-146);stroke-dasharray:0 0 2 2;}.cls-43{stroke:url(#linear-gradient-4);}.cls-44{stroke:url(#linear-gradient-168);}.cls-45{stroke:url(#linear-gradient-61);}.cls-46{stroke:url(#linear-gradient-196);}.cls-47{stroke:url(#linear-gradient-6);}.cls-48{stroke:url(#linear-gradient-18);}.cls-49{stroke:url(#linear-gradient-53);stroke-dasharray:0 0 2 2;}.cls-50{stroke:url(#linear-gradient-105);}.cls-51{stroke:url(#linear-gradient-137);stroke-dasharray:0 0 2 2;}.cls-52{stroke:url(#linear-gradient-132);}.cls-53{stroke:url(#linear-gradient-44);stroke-dasharray:0 0 2 2;}.cls-54{stroke:url(#linear-gradient-148);}.cls-55{stroke:url(#linear-gradient-78);}.cls-56{stroke:url(#linear-gradient-8);stroke-dasharray:0 0 2 2;}.cls-57{stroke:url(#linear-gradient-218);stroke-dasharray:0 0 2 2;}.cls-58{stroke:url(#linear-gradient-144);}.cls-59{stroke:url(#linear-gradient-80);stroke-dasharray:0 0 2 2;}.cls-60{stroke:url(#linear-gradient-198);}.cls-61{stroke:url(#linear-gradient-111);}.cls-62{stroke:url(#linear-gradient-216);}.cls-63{stroke:url(#linear-gradient-130);}.cls-64{stroke:url(#linear-gradient-162);}.cls-65{stroke:url(#linear-gradient-160);}.cls-66{stroke:url(#linear-gradient-47);stroke-dasharray:0 0 2 2;}.cls-67{stroke:url(#linear-gradient-87);}.cls-68{stroke:url(#linear-gradient-201);}.cls-69{stroke:url(#linear-gradient-13);}.cls-70{stroke:url(#linear-gradient-152);stroke-dasharray:0 0 2 2;}.cls-71{stroke:url(#linear-gradient-63);}.cls-72{stroke:url(#linear-gradient-82);}.cls-73{stroke:url(#linear-gradient-217);}.cls-74{stroke:url(#linear-gradient-151);}.cls-75{stroke:url(#linear-gradient-185);stroke-dasharray:0 0 2 2;}.cls-76{stroke:url(#linear-gradient-171);}.cls-77{stroke:url(#linear-gradient-71);stroke-dasharray:0 0 2 2;}.cls-78{stroke:url(#linear-gradient-32);stroke-dasharray:0 0 2 2;}.cls-79{stroke:url(#linear-gradient-172);}.cls-80{stroke:url(#linear-gradient-16);}.cls-81{stroke:url(#linear-gradient-26);stroke-dasharray:0 0 2 2;}.cls-82{stroke:url(#linear-gradient-141);}.cls-83{stroke:url(#linear-gradient-181);}.cls-84{stroke:url(#linear-gradient-166);}.cls-85{stroke:url(#linear-gradient-165);}.cls-86{stroke:url(#linear-gradient-2);stroke-dasharray:0 0 2 2;}.cls-87{stroke:url(#linear-gradient-69);}.cls-88{stroke:url(#linear-gradient-48);}.cls-89{stroke:url(#linear-gradient-150);}.cls-90{stroke:url(#linear-gradient-215);stroke-dasharray:0 0 2 2;}.cls-91{stroke:url(#linear-gradient-55);}.cls-92{stroke:url(#linear-gradient-118);}.cls-93{stroke:url(#linear-gradient-100);}.cls-94{stroke:url(#linear-gradient-153);}.cls-95{stroke:url(#linear-gradient-30);}.cls-96{stroke:url(#linear-gradient-56);stroke-dasharray:0 0 2 2;}.cls-97{stroke:url(#linear-gradient-52);}.cls-98{stroke:url(#linear-gradient-17);stroke-dasharray:0 0 2 2;}.cls-99{stroke:url(#linear-gradient-79);}.cls-100{stroke:url(#linear-gradient-102);}.cls-101{stroke:url(#linear-gradient-192);}.cls-102{stroke:url(#linear-gradient-163);}.cls-103{stroke:url(#linear-gradient-7);}.cls-104{stroke:url(#linear-gradient-207);}.cls-105{stroke:url(#linear-gradient-178);}.cls-106{stroke:url(#linear-gradient-39);}.cls-107{stroke:url(#linear-gradient-92);stroke-dasharray:0 0 2 2;}.cls-108{stroke:url(#linear-gradient-167);stroke-dasharray:0 0 2 2;}.cls-109{stroke:url(#linear-gradient-90);}.cls-110{stroke:url(#linear-gradient-94);}.cls-111{stroke:url(#linear-gradient-21);}.cls-112{stroke:url(#linear-gradient-131);stroke-dasharray:0 0 2 2;}.cls-113{stroke:url(#linear-gradient-194);stroke-dasharray:0 0 2 2;}.cls-114{stroke:url(#linear-gradient-149);stroke-dasharray:0 0 2 2;}.cls-115{stroke:url(#linear-gradient-12);}.cls-116{stroke:url(#linear-gradient-67);}.cls-117{stroke:url(#linear-gradient-85);}.cls-118{stroke:url(#linear-gradient-183);}.cls-119{stroke:url(#linear-gradient-77);stroke-dasharray:0 0 2 2;}.cls-120{stroke:url(#linear-gradient-214);}.cls-121{stroke:url(#linear-gradient-180);}.cls-122{stroke:url(#linear-gradient-143);stroke-dasharray:0 0 2 2;}.cls-123{stroke:url(#linear-gradient-138);}.cls-124{stroke:url(#linear-gradient-91);}.cls-125{stroke:url(#linear-gradient-103);}.cls-126{stroke:url(#linear-gradient-173);stroke-dasharray:0 0 2 2;}.cls-127{stroke:url(#linear-gradient-60);}.cls-128{stroke:url(#linear-gradient-66);}.cls-129{stroke:url(#linear-gradient-51);}.cls-130{stroke:url(#linear-gradient-54);}.cls-131{stroke:url(#linear-gradient-175);}.cls-132{stroke:url(#linear-gradient-211);}.cls-133{stroke:url(#linear-gradient-114);}.cls-134{stroke:url(#linear-gradient-140);stroke-dasharray:0 0 2 2;}.cls-135{stroke:url(#linear-gradient-123);}.cls-136{stroke:url(#linear-gradient-206);stroke-dasharray:0 0 2 2;}.cls-137{stroke:url(#linear-gradient-36);}.cls-138{stroke:url(#linear-gradient-199);}.cls-139{stroke:url(#linear-gradient-62);stroke-dasharray:0 0 2 2;}.cls-140{stroke:url(#linear-gradient-177);}.cls-141{stroke:url(#linear-gradient-134);stroke-dasharray:0 0 2 2;}.cls-142{stroke:url(#linear-gradient-112);}.cls-143{stroke:url(#linear-gradient-20);stroke-dasharray:0 0 2 2;}.cls-144{stroke:url(#linear-gradient-81);}.cls-145{stroke:url(#linear-gradient-84);}.cls-146{stroke:url(#linear-gradient-147);}.cls-147{stroke:url(#linear-gradient-107);stroke-dasharray:0 0 2 2;}.cls-148{stroke:url(#linear-gradient-73);}.cls-149{stroke:url(#linear-gradient-154);}.cls-150{stroke:url(#linear-gradient-24);}.cls-151{stroke:url(#linear-gradient-57);}.cls-152{stroke:url(#linear-gradient-33);}.cls-153{stroke:url(#linear-gradient-31);}.cls-154{stroke:url(#linear-gradient-96);}.cls-155{stroke:url(#linear-gradient);}.cls-156{stroke:url(#linear-gradient-99);}.cls-157{stroke:url(#linear-gradient-25);}.cls-158{stroke:url(#linear-gradient-97);}.cls-159{stroke:url(#linear-gradient-74);stroke-dasharray:0 0 2 2;}.cls-160{stroke:url(#linear-gradient-110);stroke-dasharray:0 0 2 2;}.cls-161{stroke:url(#linear-gradient-179);stroke-dasharray:0 0 2 2;}.cls-162{stroke:url(#linear-gradient-5);stroke-dasharray:0 0 2 2;}.cls-163{stroke:url(#linear-gradient-158);stroke-dasharray:0 0 2 2;}.cls-164{stroke:url(#linear-gradient-204);}.cls-165{stroke:url(#linear-gradient-190);}.cls-166{stroke:url(#linear-gradient-14);stroke-dasharray:0 0 2 2;}.cls-167{stroke:url(#linear-gradient-202);}.cls-168{stroke:url(#linear-gradient-195);}.cls-169{stroke:url(#linear-gradient-156);}.cls-170{stroke:url(#linear-gradient-122);stroke-dasharray:0 0 2 2;}.cls-171{stroke:url(#linear-gradient-116);stroke-dasharray:0 0 2 2;}.cls-172{stroke:url(#linear-gradient-193);}.cls-173{stroke:url(#linear-gradient-109);}.cls-174{stroke:url(#linear-gradient-72);}.cls-175{stroke:url(#linear-gradient-108);}.cls-176{stroke:url(#linear-gradient-145);}.cls-177{stroke:url(#linear-gradient-75);}.cls-178{stroke:url(#linear-gradient-46);}.cls-179{stroke:url(#linear-gradient-174);}.cls-180{stroke:url(#linear-gradient-164);stroke-dasharray:0 0 2 2;}.cls-181{stroke:url(#linear-gradient-50);stroke-dasharray:0 0 2 2;}.cls-182{stroke:url(#linear-gradient-35);stroke-dasharray:0 0 2 2;}.cls-183{stroke:url(#linear-gradient-115);}.cls-184{stroke:url(#linear-gradient-213);}.cls-185{stroke:url(#linear-gradient-49);}.cls-186{stroke:url(#linear-gradient-27);}.cls-187{stroke:url(#linear-gradient-23);stroke-dasharray:0 0 2 2;}.cls-188{stroke:url(#linear-gradient-182);stroke-dasharray:0 0 2 2;}.cls-189{stroke:url(#linear-gradient-98);stroke-dasharray:0 0 2 2;}.cls-190{stroke:url(#linear-gradient-86);stroke-dasharray:0 0 2 2;}.cls-191{stroke:url(#linear-gradient-124);}.cls-192{stroke:url(#linear-gradient-170);stroke-dasharray:0 0 2 2;}.cls-193{stroke:url(#linear-gradient-42);}.cls-194{stroke:url(#linear-gradient-34);}.cls-195{stroke:url(#linear-gradient-191);stroke-dasharray:0 0 2 2;}.cls-196{stroke:url(#linear-gradient-88);}.cls-197{stroke:url(#linear-gradient-155);stroke-dasharray:0 0 2 2;}.cls-198{stroke:url(#linear-gradient-128);stroke-dasharray:0 0 2 2;}.cls-199{stroke:url(#linear-gradient-159);}.cls-200{stroke:url(#linear-gradient-126);}.cls-201{stroke:url(#linear-gradient-203);stroke-dasharray:0 0 2 2;}.cls-202{stroke:url(#linear-gradient-40);}.cls-203{stroke:url(#linear-gradient-10);}.cls-204{stroke:url(#linear-gradient-41);stroke-dasharray:0 0 2 2;}.cls-205{stroke:url(#linear-gradient-15);}.cls-206{stroke:url(#linear-gradient-43);}.cls-207{stroke:url(#linear-gradient-189);}.cls-208{stroke:url(#linear-gradient-117);}.cls-209{stroke:url(#linear-gradient-38);stroke-dasharray:0 0 2 2;}.cls-210{stroke:url(#linear-gradient-136);}.cls-211{stroke:url(#linear-gradient-157);}.cls-212{stroke:url(#linear-gradient-83);stroke-dasharray:0 0 2 2;}.cls-213{stroke:url(#linear-gradient-93);}.cls-214{stroke:url(#linear-gradient-121);}.cls-215{stroke:url(#linear-gradient-209);stroke-dasharray:0 0 2 2;}.cls-216{stroke:url(#linear-gradient-142);}.cls-217{stroke:url(#linear-gradient-45);}.cls-218{stroke:url(#linear-gradient-208);}.cls-219{stroke:url(#linear-gradient-59);stroke-dasharray:0 0 2 2;}</style><linearGradient id="linear-gradient" x1=".59" y1="460.22" x2=".59" y2="458.96" gradientUnits="userSpaceOnUse"><stop offset="0" stop-color="#ec7680"/><stop offset="1" stop-color="#af174a"/></linearGradient><linearGradient id="linear-gradient-2" x1="640.59" y1="460.22" x2="640.59" y2="458.97" xlink:href="#linear-gradient"/><linearGradient id="linear-gradient-3" x1="1279.59" x2="1279.59" xlink:href="#linear-gradient"/><linearGradient id="linear-gradient-4" x1=".59" y1="451.21" x2=".59" y2="447.31" xlink:href="#linear-gradient"/><linearGradient id="linear-gradient-5" x1="640.59" y1="451.21" x2="640.59" y2="447.31" xlink:href="#linear-gradient"/><linearGradient id="linear-gradient-6" x1="1279.59" y1="451.21" x2="1279.59" y2="447.31" xlink:href="#linear-gradient"/><linearGradient id="linear-gradient-7" x1=".59" y1="440.7" x2=".59" y2="433.98" xlink:href="#linear-gradient"/><linearGradient id="linear-gradient-8" x1="640.59" y1="440.7" x2="640.59" y2="433.98" xlink:href="#linear-gradient"/><linearGradient id="linear-gradient-9" x1="1279.59" y1="440.7" x2="1279.59" y2="433.98" xlink:href="#linear-gradient"/><linearGradient id="linear-gradient-10" x1=".59" y1="430.98" x2=".59" y2="418.15" xlink:href="#linear-gradient"/><linearGradient id="linear-gradient-11" x1="640.6" y1="430.98" x2="640.6" y2="418.15" xlink:href="#linear-gradient"/><linearGradient id="linear-gradient-12" x1="1279.59" y1="430.98" x2="1279.59" y2="418.15" xlink:href="#linear-gradient"/><linearGradient id="linear-gradient-13" x1=".6" y1="421.52" x2=".6" y2="401.88" xlink:href="#linear-gradient"/><linearGradient id="linear-gradient-14" x1="640.6" y1="421.52" x2="640.6" y2="401.88" xlink:href="#linear-gradient"/><linearGradient id="linear-gradient-15" x1="1279.59" y1="421.52" x2="1279.59" y2="401.88" xlink:href="#linear-gradient"/><linearGradient id="linear-gradient-16" x1=".59" y1="412.29" x2=".59" y2="384.91" xlink:href="#linear-gradient"/><linearGradient id="linear-gradient-17" x1="640.59" y1="412.26" x2="640.59" y2="384.91" xlink:href="#linear-gradient"/><linearGradient id="linear-gradient-18" x1="1279.59" y1="412.29" x2="1279.59" y2="384.91" xlink:href="#linear-gradient"/><linearGradient id="linear-gradient-19" x1=".59" y1="403.29" x2=".59" y2="367.63" xlink:href="#linear-gradient"/><linearGradient id="linear-gradient-20" x1="640.59" y1="403.29" x2="640.59" y2="367.63" xlink:href="#linear-gradient"/><linearGradient id="linear-gradient-21" x1="1279.59" y1="403.29" x2="1279.59" y2="367.63" xlink:href="#linear-gradient"/><linearGradient id="linear-gradient-22" x1=".59" y1="394.47" x2=".59" y2="350.42" xlink:href="#linear-gradient"/><linearGradient id="linear-gradient-23" x1="640.58" y1="394.47" x2="640.58" y2="350.42" xlink:href="#linear-gradient"/><linearGradient id="linear-gradient-24" x1="1279.59" y1="394.47" x2="1279.59" y2="350.42" xlink:href="#linear-gradient"/><linearGradient id="linear-gradient-25" x1=".59" y1="385.82" x2=".59" y2="333.68" xlink:href="#linear-gradient"/><linearGradient id="linear-gradient-26" x1="640.58" y1="385.82" x2="640.58" y2="333.68" xlink:href="#linear-gradient"/><linearGradient id="linear-gradient-27" x1="1279.59" y1="385.82" x2="1279.59" y2="333.68" xlink:href="#linear-gradient"/><linearGradient id="linear-gradient-28" x1=".59" y1="377.35" x2=".59" y2="317.8" xlink:href="#linear-gradient"/><linearGradient id="linear-gradient-29" x1="640.58" y1="377.35" x2="640.58" y2="317.8" xlink:href="#linear-gradient"/><linearGradient id="linear-gradient-30" x1="1279.59" y1="377.35" x2="1279.59" y2="317.8" xlink:href="#linear-gradient"/><linearGradient id="linear-gradient-31" x1=".59" y1="369.04" x2=".59" y2="303.21" xlink:href="#linear-gradient"/><linearGradient id="linear-gradient-32" x1="640.58" y1="369.04" x2="640.58" y2="303.21" xlink:href="#linear-gradient"/><linearGradient id="linear-gradient-33" x1="1279.59" y1="369.04" x2="1279.59" y2="303.21" xlink:href="#linear-gradient"/><linearGradient id="linear-gradient-34" x1=".59" y1="360.91" x2=".59" y2="290.3" xlink:href="#linear-gradient"/><linearGradient id="linear-gradient-35" x1="640.58" y1="360.91" x2="640.58" y2="290.3" xlink:href="#linear-gradient"/><linearGradient id="linear-gradient-36" x1="1279.59" y1="360.91" x2="1279.59" y2="290.3" xlink:href="#linear-gradient"/><linearGradient id="linear-gradient-37" x1=".59" y1="352.94" x2=".59" y2="279.49" xlink:href="#linear-gradient"/><linearGradient id="linear-gradient-38" x1="640.58" y1="352.94" x2="640.58" y2="279.49" xlink:href="#linear-gradient"/><linearGradient id="linear-gradient-39" x1="1279.59" y1="352.94" x2="1279.59" y2="279.49" xlink:href="#linear-gradient"/><linearGradient id="linear-gradient-40" x1=".59" y1="345.14" x2=".59" y2="270.94" xlink:href="#linear-gradient"/><linearGradient id="linear-gradient-41" x1="640.58" y1="345.14" x2="640.58" y2="270.94" xlink:href="#linear-gradient"/><linearGradient id="linear-gradient-42" x1="1279.59" y1="345.14" x2="1279.59" y2="270.94" xlink:href="#linear-gradient"/><linearGradient id="linear-gradient-43" x1=".59" y1="337.51" x2=".59" y2="262.64" xlink:href="#linear-gradient"/><linearGradient id="linear-gradient-44" x1="640.59" y1="337.51" x2="640.59" y2="262.64" xlink:href="#linear-gradient"/><linearGradient id="linear-gradient-45" x1="1279.59" y1="337.51" x2="1279.59" y2="262.64" xlink:href="#linear-gradient"/><linearGradient id="linear-gradient-46" x1=".59" y1="330.04" x2=".59" y2="254.12" xlink:href="#linear-gradient"/><linearGradient id="linear-gradient-47" x1="640.58" y1="330" x2="640.58" y2="254.12" xlink:href="#linear-gradient"/><linearGradient id="linear-gradient-48" x1="1279.59" y1="330.04" x2="1279.59" y2="254.12" xlink:href="#linear-gradient"/><linearGradient id="linear-gradient-49" x1=".6" y1="322.96" x2=".6" y2="245.41" xlink:href="#linear-gradient"/><linearGradient id="linear-gradient-50" x1="640.58" y1="322.96" x2="640.58" y2="245.41" xlink:href="#linear-gradient"/><linearGradient id="linear-gradient-51" x1="1279.59" y1="322.96" x2="1279.59" y2="245.41" xlink:href="#linear-gradient"/><linearGradient id="linear-gradient-52" x1=".6" y1="316.13" x2=".6" y2="236.53" xlink:href="#linear-gradient"/><linearGradient id="linear-gradient-53" x1="640.58" y1="316.13" x2="640.58" y2="236.53" xlink:href="#linear-gradient"/><linearGradient id="linear-gradient-54" x1="1279.59" y1="316.13" x2="1279.59" y2="236.53" xlink:href="#linear-gradient"/><linearGradient id="linear-gradient-55" x1=".6" y1="309.5" x2=".6" y2="227.52" xlink:href="#linear-gradient"/><linearGradient id="linear-gradient-56" x1="640.58" y1="309.5" x2="640.58" y2="227.52" xlink:href="#linear-gradient"/><linearGradient id="linear-gradient-57" x1="1279.59" y1="309.5" x2="1279.59" y2="227.52" xlink:href="#linear-gradient"/><linearGradient id="linear-gradient-58" x1=".6" y1="303.07" x2=".6" y2="218.39" xlink:href="#linear-gradient"/><linearGradient id="linear-gradient-59" x1="640.58" y1="303.07" x2="640.58" y2="218.39" xlink:href="#linear-gradient"/><linearGradient id="linear-gradient-60" x1="1279.59" y1="303.07" x2="1279.59" y2="218.39" xlink:href="#linear-gradient"/><linearGradient id="linear-gradient-61" x1=".6" y1="296.82" x2=".6" y2="209.21" xlink:href="#linear-gradient"/><linearGradient id="linear-gradient-62" x1="640.58" y1="296.82" x2="640.58" y2="209.21" xlink:href="#linear-gradient"/><linearGradient id="linear-gradient-63" x1="1279.59" y1="296.82" x2="1279.59" y2="209.21" xlink:href="#linear-gradient"/><linearGradient id="linear-gradient-64" x1=".6" y1="290.75" x2=".6" y2="199.96" xlink:href="#linear-gradient"/><linearGradient id="linear-gradient-65" x1="640.58" y1="290.75" x2="640.58" y2="199.96" xlink:href="#linear-gradient"/><linearGradient id="linear-gradient-66" x1="1279.59" y1="290.75" x2="1279.59" y2="199.96" xlink:href="#linear-gradient"/><linearGradient id="linear-gradient-67" x1=".59" y1="284.86" x2=".59" y2="190.67" xlink:href="#linear-gradient"/><linearGradient id="linear-gradient-68" x1="640.58" y1="284.86" x2="640.58" y2="190.67" xlink:href="#linear-gradient"/><linearGradient id="linear-gradient-69" x1="1279.59" y1="284.86" x2="1279.59" y2="190.67" xlink:href="#linear-gradient"/><linearGradient id="linear-gradient-70" x1=".59" y1="279.14" x2=".59" y2="181.38" xlink:href="#linear-gradient"/><linearGradient id="linear-gradient-71" x1="640.58" y1="279.14" x2="640.58" y2="181.38" xlink:href="#linear-gradient"/><linearGradient id="linear-gradient-72" x1="1279.59" y1="279.14" x2="1279.59" y2="181.38" xlink:href="#linear-gradient"/><linearGradient id="linear-gradient-73" x1=".59" y1="273.59" x2=".59" y2="172.12" xlink:href="#linear-gradient"/><linearGradient id="linear-gradient-74" x1="640.58" y1="273.59" x2="640.58" y2="172.12" xlink:href="#linear-gradient"/><linearGradient id="linear-gradient-75" x1="1279.59" y1="273.59" x2="1279.59" y2="172.12" xlink:href="#linear-gradient"/><linearGradient id="linear-gradient-76" x1=".59" y1="268.2" x2=".59" y2="162.91" xlink:href="#linear-gradient"/><linearGradient id="linear-gradient-77" x1="640.58" y1="268.2" x2="640.58" y2="162.91" xlink:href="#linear-gradient"/><linearGradient id="linear-gradient-78" x1="1279.59" y1="268.2" x2="1279.59" y2="162.91" xlink:href="#linear-gradient"/><linearGradient id="linear-gradient-79" x1=".59" y1="262.96" x2=".59" y2="153.79" xlink:href="#linear-gradient"/><linearGradient id="linear-gradient-80" x1="640.58" y1="262.96" x2="640.58" y2="153.79" xlink:href="#linear-gradient"/><linearGradient id="linear-gradient-81" x1="1279.59" y1="262.96" x2="1279.59" y2="153.79" xlink:href="#linear-gradient"/><linearGradient id="linear-gradient-82" x1=".59" y1="257.91" x2=".59" y2="144.77" xlink:href="#linear-gradient"/><linearGradient id="linear-gradient-83" x1="640.58" y1="257.91" x2="640.58" y2="144.77" xlink:href="#linear-gradient"/><linearGradient id="linear-gradient-84" x1="1279.59" y1="257.91" x2="1279.59" y2="144.77" xlink:href="#linear-gradient"/><linearGradient id="linear-gradient-85" x1=".59" y1="252.97" x2=".59" y2="135.9" xlink:href="#linear-gradient"/><linearGradient id="linear-gradient-86" x1="640.58" y1="252.97" x2="640.58" y2="135.9" xlink:href="#linear-gradient"/><linearGradient id="linear-gradient-87" x1="1279.59" y1="252.97" x2="1279.59" y2="135.9" xlink:href="#linear-gradient"/><linearGradient id="linear-gradient-88" x1=".59" y1="248.17" x2=".59" y2="127.19" xlink:href="#linear-gradient"/><linearGradient id="linear-gradient-89" x1="640.59" y1="248.17" x2="640.59" y2="127.19" xlink:href="#linear-gradient"/><linearGradient id="linear-gradient-90" x1="1279.59" y1="248.17" x2="1279.59" y2="127.19" xlink:href="#linear-gradient"/><linearGradient id="linear-gradient-91" x1=".59" y1="243.5" x2=".59" y2="118.68" xlink:href="#linear-gradient"/><linearGradient id="linear-gradient-92" x1="640.58" y1="243.5" x2="640.58" y2="118.68" xlink:href="#linear-gradient"/><linearGradient id="linear-gradient-93" x1="1279.59" y1="243.5" x2="1279.59" y2="118.68" xlink:href="#linear-gradient"/><linearGradient id="linear-gradient-94" x1=".59" y1="238.95" x2=".59" y2="110.13" xlink:href="#linear-gradient"/><linearGradient id="linear-gradient-95" x1="640.58" y1="238.95" x2="640.58" y2="110.13" xlink:href="#linear-gradient"/><linearGradient id="linear-gradient-96" x1="1279.59" y1="238.95" x2="1279.59" y2="110.13" xlink:href="#linear-gradient"/><linearGradient id="linear-gradient-97" x1=".6" y1="234.52" x2=".6" y2="100.81" xlink:href="#linear-gradient"/><linearGradient id="linear-gradient-98" x1="640.59" y1="234.52" x2="640.59" y2="100.81" xlink:href="#linear-gradient"/><linearGradient id="linear-gradient-99" x1="1279.59" y1="234.52" x2="1279.59" y2="100.81" xlink:href="#linear-gradient"/><linearGradient id="linear-gradient-100" x1=".59" y1="230.21" x2=".59" y2="91.83" xlink:href="#linear-gradient"/><linearGradient id="linear-gradient-101" x1="640.59" y1="230.21" x2="640.59" y2="91.83" xlink:href="#linear-gradient"/><linearGradient id="linear-gradient-102" x1="1279.59" y1="230.21" x2="1279.59" y2="91.83" xlink:href="#linear-gradient"/><linearGradient id="linear-gradient-103" x1=".59" y1="226" x2=".59" y2="83.25" xlink:href="#linear-gradient"/><linearGradient id="linear-gradient-104" x1="640.59" y1="226" x2="640.59" y2="83.25" xlink:href="#linear-gradient"/><linearGradient id="linear-gradient-105" x1="1279.59" y1="226" x2="1279.59" y2="83.25" xlink:href="#linear-gradient"/><linearGradient id="linear-gradient-106" x1=".59" y1="221.91" x2=".59" y2="75.1" xlink:href="#linear-gradient"/><linearGradient id="linear-gradient-107" x1="640.58" y1="221.91" x2="640.58" y2="75.1" xlink:href="#linear-gradient"/><linearGradient id="linear-gradient-108" x1="1279.59" y1="221.91" x2="1279.59" y2="75.1" xlink:href="#linear-gradient"/><linearGradient id="linear-gradient-109" x1=".59" y1="217.91" x2=".59" y2="67.42" xlink:href="#linear-gradient"/><linearGradient id="linear-gradient-110" x1="640.58" y1="217.91" x2="640.58" y2="67.42" xlink:href="#linear-gradient"/><linearGradient id="linear-gradient-111" x1="1279.59" y1="217.91" x2="1279.59" y2="67.42" xlink:href="#linear-gradient"/><linearGradient id="linear-gradient-112" x1=".59" y1="214" x2=".59" y2="60.26" xlink:href="#linear-gradient"/><linearGradient id="linear-gradient-113" x1="640.58" y1="214" x2="640.58" y2="60.26" xlink:href="#linear-gradient"/><linearGradient id="linear-gradient-114" x1="1279.59" y1="214" x2="1279.59" y2="60.26" xlink:href="#linear-gradient"/><linearGradient id="linear-gradient-115" x1=".59" y1="210.19" x2=".59" y2="53.65" xlink:href="#linear-gradient"/><linearGradient id="linear-gradient-116" x1="640.58" y1="210.19" x2="640.58" y2="53.65" xlink:href="#linear-gradient"/><linearGradient id="linear-gradient-117" x1="1279.59" y1="210.19" x2="1279.59" y2="53.65" xlink:href="#linear-gradient"/><linearGradient id="linear-gradient-118" x1=".59" y1="206.45" x2=".59" y2="47.65" xlink:href="#linear-gradient"/><linearGradient id="linear-gradient-119" x1="640.59" y1="206.45" x2="640.59" y2="47.65" xlink:href="#linear-gradient"/><linearGradient id="linear-gradient-120" x1="1279.59" y1="206.45" x2="1279.59" y2="47.65" xlink:href="#linear-gradient"/><linearGradient id="linear-gradient-121" x1=".59" y1="202.8" x2=".59" y2="40.38" xlink:href="#linear-gradient"/><linearGradient id="linear-gradient-122" x1="640.59" y1="202.8" x2="640.59" y2="40.38" xlink:href="#linear-gradient"/><linearGradient id="linear-gradient-123" x1="1279.59" y1="202.8" x2="1279.59" y2="40.38" xlink:href="#linear-gradient"/><linearGradient id="linear-gradient-124" x1=".59" y1="199.22" x2=".59" y2="35.63" xlink:href="#linear-gradient"/><linearGradient id="linear-gradient-125" x1="640.58" y1="199.22" x2="640.58" y2="35.63" xlink:href="#linear-gradient"/><linearGradient id="linear-gradient-126" x1="1279.59" y1="199.22" x2="1279.59" y2="35.63" xlink:href="#linear-gradient"/><linearGradient id="linear-gradient-127" x1=".59" y1="195.4" x2=".59" y2="32.04" xlink:href="#linear-gradient"/><linearGradient id="linear-gradient-128" x1="640.58" y1="195.4" x2="640.58" y2="32.04" xlink:href="#linear-gradient"/><linearGradient id="linear-gradient-129" x1="1279.59" y1="195.4" x2="1279.59" y2="32.04" xlink:href="#linear-gradient"/><linearGradient id="linear-gradient-130" x1=".59" y1="191.13" x2=".59" y2="30.19" xlink:href="#linear-gradient"/><linearGradient id="linear-gradient-131" x1="640.58" y1="191.13" x2="640.58" y2="30.19" xlink:href="#linear-gradient"/><linearGradient id="linear-gradient-132" x1="1279.59" y1="191.13" x2="1279.59" y2="30.19" xlink:href="#linear-gradient"/><linearGradient id="linear-gradient-133" x1=".59" y1="186.74" x2=".59" y2="31.46" xlink:href="#linear-gradient"/><linearGradient id="linear-gradient-134" x1="640.57" y1="186.74" x2="640.57" y2="31.46" xlink:href="#linear-gradient"/><linearGradient id="linear-gradient-135" x1="1279.6" y1="186.74" x2="1279.6" y2="31.46" xlink:href="#linear-gradient"/><linearGradient id="linear-gradient-136" x1=".59" y1="182.24" x2=".59" y2="32.02" xlink:href="#linear-gradient"/><linearGradient id="linear-gradient-137" x1="640.57" y1="182.24" x2="640.57" y2="32.02" xlink:href="#linear-gradient"/><linearGradient id="linear-gradient-138" x1="1279.6" y1="182.24" x2="1279.6" y2="32.02" xlink:href="#linear-gradient"/><linearGradient id="linear-gradient-139" x1=".59" y1="177.66" x2=".59" y2="33.7" xlink:href="#linear-gradient"/><linearGradient id="linear-gradient-140" x1="640.56" y1="177.66" x2="640.56" y2="33.7" xlink:href="#linear-gradient"/><linearGradient id="linear-gradient-141" x1="1279.6" y1="177.66" x2="1279.6" y2="33.7" xlink:href="#linear-gradient"/><linearGradient id="linear-gradient-142" x1=".59" y1="173" x2=".59" y2="36.4" xlink:href="#linear-gradient"/><linearGradient id="linear-gradient-143" x1="640.56" y1="173" x2="640.56" y2="36.4" xlink:href="#linear-gradient"/><linearGradient id="linear-gradient-144" x1="1279.6" y1="173" x2="1279.6" y2="36.4" xlink:href="#linear-gradient"/><linearGradient id="linear-gradient-145" x1=".59" y1="168.28" x2=".59" y2="40.05" xlink:href="#linear-gradient"/><linearGradient id="linear-gradient-146" x1="640.57" y1="168.28" x2="640.57" y2="40.05" xlink:href="#linear-gradient"/><linearGradient id="linear-gradient-147" x1="1279.6" y1="168.28" x2="1279.6" y2="40.05" xlink:href="#linear-gradient"/><linearGradient id="linear-gradient-148" x1=".59" y1="163.53" x2=".59" y2="44.56" xlink:href="#linear-gradient"/><linearGradient id="linear-gradient-149" x1="640.57" y1="163.53" x2="640.57" y2="44.56" xlink:href="#linear-gradient"/><linearGradient id="linear-gradient-150" x1="1279.6" y1="163.53" x2="1279.6" y2="44.56" xlink:href="#linear-gradient"/><linearGradient id="linear-gradient-151" x1=".59" y1="158.76" x2=".59" y2="49.83" xlink:href="#linear-gradient"/><linearGradient id="linear-gradient-152" x1="640.58" y1="158.76" x2="640.58" y2="49.83" xlink:href="#linear-gradient"/><linearGradient id="linear-gradient-153" x1="1279.6" y1="158.76" x2="1279.6" y2="49.83" xlink:href="#linear-gradient"/><linearGradient id="linear-gradient-154" x1=".59" y1="153.98" x2=".59" y2="55.8" xlink:href="#linear-gradient"/><linearGradient id="linear-gradient-155" x1="640.58" y1="153.98" x2="640.58" y2="55.8" xlink:href="#linear-gradient"/><linearGradient id="linear-gradient-156" x1="1279.6" y1="153.98" x2="1279.6" y2="55.8" xlink:href="#linear-gradient"/><linearGradient id="linear-gradient-157" x1=".59" y1="151.18" x2=".59" y2="62.36" xlink:href="#linear-gradient"/><linearGradient id="linear-gradient-158" x1="640.59" y1="151.18" x2="640.59" y2="62.36" xlink:href="#linear-gradient"/><linearGradient id="linear-gradient-159" x1="1279.59" y1="151.18" x2="1279.59" y2="62.36" xlink:href="#linear-gradient"/><linearGradient id="linear-gradient-160" x1=".59" y1="148.73" x2=".59" y2="69.44" xlink:href="#linear-gradient"/><linearGradient id="linear-gradient-161" x1="640.59" y1="148.73" x2="640.59" y2="69.44" xlink:href="#linear-gradient"/><linearGradient id="linear-gradient-162" x1="1279.59" y1="148.73" x2="1279.59" y2="69.44" xlink:href="#linear-gradient"/><linearGradient id="linear-gradient-163" x1=".59" y1="146.39" x2=".59" y2="76.95" xlink:href="#linear-gradient"/><linearGradient id="linear-gradient-164" x1="640.59" y1="146.39" x2="640.59" y2="76.95" xlink:href="#linear-gradient"/><linearGradient id="linear-gradient-165" x1="1279.59" y1="146.39" x2="1279.59" y2="76.95" xlink:href="#linear-gradient"/><linearGradient id="linear-gradient-166" x1=".59" y1="144.15" x2=".59" y2="84.79" xlink:href="#linear-gradient"/><linearGradient id="linear-gradient-167" x1="640.6" y1="144.15" x2="640.6" y2="84.79" xlink:href="#linear-gradient"/><linearGradient id="linear-gradient-168" x1="1279.59" y1="144.15" x2="1279.59" y2="84.79" xlink:href="#linear-gradient"/><linearGradient id="linear-gradient-169" x1=".59" y1="142.02" x2=".59" y2="87.52" xlink:href="#linear-gradient"/><linearGradient id="linear-gradient-170" x1="640.6" y1="142.02" x2="640.6" y2="87.52" xlink:href="#linear-gradient"/><linearGradient id="linear-gradient-171" x1="1279.59" y1="142.02" x2="1279.59" y2="87.52" xlink:href="#linear-gradient"/><linearGradient id="linear-gradient-172" x1=".59" y1="139.99" x2=".59" y2="79.5" xlink:href="#linear-gradient"/><linearGradient id="linear-gradient-173" x1="640.59" y1="139.95" x2="640.59" y2="79.46" xlink:href="#linear-gradient"/><linearGradient id="linear-gradient-174" x1="1279.59" y1="139.99" x2="1279.59" y2="79.5" xlink:href="#linear-gradient"/><linearGradient id="linear-gradient-175" x1=".59" y1="138.07" x2=".59" y2="71.54" xlink:href="#linear-gradient"/><linearGradient id="linear-gradient-176" x1="640.58" y1="138.06" x2="640.58" y2="71.53" xlink:href="#linear-gradient"/><linearGradient id="linear-gradient-177" x1="1279.59" y1="138.07" x2="1279.59" y2="71.54" xlink:href="#linear-gradient"/><linearGradient id="linear-gradient-178" x1=".59" y1="136.27" x2=".59" y2="63.74" xlink:href="#linear-gradient"/><linearGradient id="linear-gradient-179" x1="640.57" y1="136.27" x2="640.57" y2="63.74" xlink:href="#linear-gradient"/><linearGradient id="linear-gradient-180" x1="1279.59" y1="136.27" x2="1279.59" y2="63.74" xlink:href="#linear-gradient"/><linearGradient id="linear-gradient-181" x1=".59" y1="134.73" x2=".59" y2="56.15" xlink:href="#linear-gradient"/><linearGradient id="linear-gradient-182" x1="640.56" y1="134.73" x2="640.56" y2="56.15" xlink:href="#linear-gradient"/><linearGradient id="linear-gradient-183" x1="1279.59" y1="134.73" x2="1279.59" y2="56.15" xlink:href="#linear-gradient"/><linearGradient id="linear-gradient-184" x1=".59" y1="139.11" x2=".59" y2="48.82" xlink:href="#linear-gradient"/><linearGradient id="linear-gradient-185" x1="640.55" y1="139.11" x2="640.55" y2="48.82" xlink:href="#linear-gradient"/><linearGradient id="linear-gradient-186" x1="1279.59" y1="139.11" x2="1279.59" y2="48.82" xlink:href="#linear-gradient"/><linearGradient id="linear-gradient-187" x1=".59" y1="146.8" x2=".59" y2="41.8" xlink:href="#linear-gradient"/><linearGradient id="linear-gradient-188" x1="640.55" y1="146.8" x2="640.55" y2="41.8" xlink:href="#linear-gradient"/><linearGradient id="linear-gradient-189" x1="1279.59" y1="146.8" x2="1279.59" y2="41.8" xlink:href="#linear-gradient"/><linearGradient id="linear-gradient-190" x1=".59" y1="154.13" x2=".59" y2="35.15" xlink:href="#linear-gradient"/><linearGradient id="linear-gradient-191" x1="640.54" y1="154.13" x2="640.54" y2="35.15" xlink:href="#linear-gradient"/><linearGradient id="linear-gradient-192" x1="1279.59" y1="154.13" x2="1279.59" y2="35.15" xlink:href="#linear-gradient"/><linearGradient id="linear-gradient-193" x1=".59" y1="161.02" x2=".59" y2="28.91" xlink:href="#linear-gradient"/><linearGradient id="linear-gradient-194" x1="640.54" y1="161.02" x2="640.54" y2="28.91" xlink:href="#linear-gradient"/><linearGradient id="linear-gradient-195" x1="1279.59" y1="161.02" x2="1279.59" y2="28.91" xlink:href="#linear-gradient"/><linearGradient id="linear-gradient-196" x1=".59" y1="167.38" x2=".59" y2="23.14" xlink:href="#linear-gradient"/><linearGradient id="linear-gradient-197" x1="640.54" y1="167.38" x2="640.54" y2="23.14" xlink:href="#linear-gradient"/><linearGradient id="linear-gradient-198" x1="1279.59" y1="167.38" x2="1279.59" y2="23.14" xlink:href="#linear-gradient"/><linearGradient id="linear-gradient-199" x1=".59" y1="173.13" x2=".59" y2="17.88" xlink:href="#linear-gradient"/><linearGradient id="linear-gradient-200" x1="640.54" y1="173.13" x2="640.54" y2="17.88" xlink:href="#linear-gradient"/><linearGradient id="linear-gradient-201" x1="1279.59" y1="173.13" x2="1279.59" y2="17.88" xlink:href="#linear-gradient"/><linearGradient id="linear-gradient-202" x1=".59" y1="178.17" x2=".59" y2="13.19" xlink:href="#linear-gradient"/><linearGradient id="linear-gradient-203" x1="640.53" y1="178.17" x2="640.53" y2="13.19" xlink:href="#linear-gradient"/><linearGradient id="linear-gradient-204" x1="1279.59" y1="178.17" x2="1279.59" y2="13.19" xlink:href="#linear-gradient"/><linearGradient id="linear-gradient-205" x1=".59" y1="182.42" x2=".59" y2="9.11" xlink:href="#linear-gradient"/><linearGradient id="linear-gradient-206" x1="640.53" y1="182.42" x2="640.53" y2="9.11" xlink:href="#linear-gradient"/><linearGradient id="linear-gradient-207" x1="1279.59" y1="182.42" x2="1279.59" y2="9.11" xlink:href="#linear-gradient"/><linearGradient id="linear-gradient-208" x1=".59" y1="185.79" x2=".59" y2="5.7" xlink:href="#linear-gradient"/><linearGradient id="linear-gradient-209" x1="640.54" y1="185.79" x2="640.54" y2="5.7" xlink:href="#linear-gradient"/><linearGradient id="linear-gradient-210" x1="1279.59" y1="185.79" x2="1279.59" y2="5.7" xlink:href="#linear-gradient"/><linearGradient id="linear-gradient-211" x1=".59" y1="188.2" x2=".59" y2="3.02" xlink:href="#linear-gradient"/><linearGradient id="linear-gradient-212" x1="640.54" y1="188.2" x2="640.54" y2="3.02" xlink:href="#linear-gradient"/><linearGradient id="linear-gradient-213" x1="1279.59" y1="188.2" x2="1279.59" y2="3.02" xlink:href="#linear-gradient"/><linearGradient id="linear-gradient-214" x1=".59" y1="189.55" x2=".59" y2="1.1" xlink:href="#linear-gradient"/><linearGradient id="linear-gradient-215" x1="640.55" y1="189.55" x2="640.55" y2="1.1" xlink:href="#linear-gradient"/><linearGradient id="linear-gradient-216" x1="1279.59" y1="189.55" x2="1279.59" y2="1.1" xlink:href="#linear-gradient"/><linearGradient id="linear-gradient-217" x1=".59" y1="189.77" x2=".59" y2="0" xlink:href="#linear-gradient"/><linearGradient id="linear-gradient-218" x1="640.56" y1="189.77" x2="640.56" y2="0" xlink:href="#linear-gradient"/><linearGradient id="linear-gradient-219" x1="1279.59" y1="189.77" x2="1279.59" y2="0" xlink:href="#linear-gradient"/></defs><g id="Design"><g><g><path class="cls-155" d="M.09,459.46c.33,0,.67,0,1,0"/><path class="cls-86" d="M3.09,459.47c425,.41,850,.24,1275,0"/><path class="cls-3" d="M1279.09,459.47c.33,0,.67,0,1,0"/></g><g><path class="cls-43" d="M.09,449.57c.33,0,.67,0,1,.01"/><path class="cls-162" d="M3.09,449.61c115.48,1.62,231.05-2.52,346.56-1.68,96.83,.71,193.63,1.46,290.45,1.84,212.54,.82,425.46,1.71,637.99-.18"/><path class="cls-47" d="M1279.09,449.57c.33,0,.67,0,1,0"/></g><g><path class="cls-103" d="M.09,439.85c.33,0,.67,.01,1,.02"/><path class="cls-56" d="M3.09,439.91c115.63,2.05,231.15-7.46,346.92-5.02,96.76,2.04,193.31,4.96,290.1,5.2,96.79,.24,193.51-4.56,290.29-4.34,115.88,.26,231.82,5.44,347.69,4.12"/><path class="cls-16" d="M1279.09,439.85c.33,0,.67,0,1-.01"/></g><g><path class="cls-203" d="M.09,430.32c.33,0,.67,.01,1,.02"/><path class="cls-10" d="M3.1,430.36c60.86,.74,121.18-6.25,181.87-9.68,55.01-3.11,110.52-2.26,165.56-.04,96.68,3.89,192.77,10.11,289.58,9.83,96.73-.27,193.27-8.05,289.99-8.35,116.1-.37,231.95,9.32,348,8.2"/><path class="cls-115" d="M1279.09,430.3c.33,0,.67,0,1-.01"/></g><g><path class="cls-69" d="M.09,420.96c.33,0,.67,0,1,0"/><path class="cls-166" d="M3.1,420.98c61.31,.13,121.56-10,182.49-15.41,54.97-4.88,110.54-3.57,165.56-.07,96.55,6.14,192.04,16.52,288.95,15.44,96.68-1.08,192.95-12.12,289.63-13.24,116.42-1.35,232.05,13.76,348.37,13.23"/><path class="cls-205" d="M1279.09,420.93c.33,0,.67,0,1,0"/></g><g><path class="cls-80" d="M.09,411.79c.33,0,.67,0,1,0"/><path class="cls-98" d="M3.09,411.76c61.88-.73,121.99-14.23,183.19-21.85,55.03-6.86,110.44-5.06,165.56-.1,96.33,8.66,191.19,23.8,288.23,21.71,96.66-2.09,192.57-16.59,289.22-18.73,116.81-2.58,232.14,18.6,348.79,18.93"/><path class="cls-48" d="M1279.09,411.72c.33,0,.67,0,1,0"/></g><g><path class="cls-29" d="M.09,402.79c.33,0,.67-.01,1-.02"/><path class="cls-143" d="M3.09,402.72c62.56-1.73,122.46-18.71,183.94-28.69,55.21-8.96,110.22-6.67,165.57-.13,96,11.33,190.27,31.57,287.46,28.34,96.66-3.21,192.14-21.28,288.79-24.55,117.24-3.97,232.26,23.64,349.24,24.99"/><path class="cls-111" d="M1279.09,402.69c.33,0,.67,0,1,0"/></g><g><path class="cls-25" d="M.09,393.97c.33-.01,.67-.02,1-.04"/><path class="cls-187" d="M3.09,393.85c63.31-2.78,122.94-23.25,184.69-35.59,55.47-11.09,109.89-8.33,165.57-.17,95.57,14.01,189.31,39.43,286.69,35.05,96.69-4.35,191.67-26.01,288.36-30.44,117.67-5.38,232.39,28.72,349.7,31.11"/><path class="cls-150" d="M1279.09,393.83c.33,0,.67,.01,1,.02"/></g><g><path class="cls-157" d="M.09,385.32c.33-.02,.67-.03,1-.05"/><path class="cls-81" d="M3.09,385.16c64.1-3.76,123.42-27.62,185.41-42.25,55.76-13.16,109.53-9.96,165.57-.2,95.09,16.57,188.35,46.99,285.95,41.51,96.76-5.43,191.19-30.6,287.94-36.11,118.1-6.73,232.53,33.65,350.14,37"/><path class="cls-186" d="M1279.09,385.14c.33,0,.67,.02,1,.03"/></g><g><path class="cls-7" d="M.09,376.85c.33-.02,.67-.04,1-.06"/><path class="cls-21" d="M3.09,376.65c64.89-4.56,123.87-31.61,186.07-48.33,55.99-15.05,109.22-11.48,165.57-.23,94.65,18.9,187.37,53.85,285.27,47.44,96.85-6.35,190.71-34.85,287.55-41.3,118.54-7.89,232.62,38.27,350.54,42.35"/><path class="cls-95" d="M1279.09,376.62c.33,.01,.67,.02,1,.03"/></g><g><path class="cls-153" d="M.09,368.54c.33-.02,.67-.04,1-.07"/><path class="cls-78" d="M3.09,368.33c65.63-5.04,124.27-35.01,186.64-53.51,56.1-16.65,109.04-12.78,165.58-.26,94.33,20.9,186.38,59.64,284.7,52.52,96.97-7.02,190.27-38.61,287.22-45.73,119.01-8.74,232.61,42.4,350.88,46.88"/><path class="cls-152" d="M1279.09,368.27c.33,.01,.67,.02,1,.03"/></g><g><path class="cls-194" d="M.09,360.41c.33-.02,.67-.04,1-.07"/><path class="cls-182" d="M3.09,360.2c66.29-5.09,124.58-37.59,187.06-57.48,56.01-17.83,109.07-13.76,165.58-.28,94.26,22.49,185.38,63.95,284.27,56.47,97.1-7.34,189.88-41.68,286.97-49.14,119.55-9.19,232.45,45.87,351.13,50.28"/><path class="cls-137" d="M1279.09,360.09c.33,.01,.67,.02,1,.03"/></g><g><path class="cls-17" d="M.09,352.44c.33-.02,.67-.04,1-.06"/><path class="cls-209" d="M3.09,352.26c66.81-4.56,124.79-39.16,187.32-59.9,55.69-18.47,109.35-14.31,165.58-.3,94.54,23.56,184.38,66.39,284.02,58.98,97.24-7.23,189.59-43.88,286.81-51.24,120.14-9.09,232.13,48.5,351.27,52.25"/><path class="cls-106" d="M1279.09,352.08c.33,0,.67,.02,1,.03"/></g><g><path class="cls-202" d="M.09,344.64c.33-.01,.67-.03,1-.04"/><path class="cls-204" d="M3.09,344.49c67.07-3.83,124.92-39.59,187.46-60.59,55.31-18.57,109.73-14.45,165.6-.32,94.95,24.01,183.5,66.79,283.76,59.88,97.46-6.71,189.65-44.85,287.06-51.97,120.65-8.82,231.62,50.04,351.13,52.73"/><path class="cls-193" d="M1279.09,344.24c.33,0,.67,.01,1,.02"/></g><g><path class="cls-206" d="M.09,337.01c.33-.01,.67-.03,1-.04"/><path class="cls-53" d="M3.09,336.88c67.28-3.47,125.18-39.98,187.77-61.17,55.12-18.66,109.93-14.63,165.62-.35,95.1,24.38,182.63,67.21,283.19,60.73,97.88-6.31,190.21-45.65,287.96-52.93,120.98-9.01,230.8,51.46,350.46,53.39"/><path class="cls-217" d="M1279.09,336.55c.33,0,.67,0,1,.01"/></g><g><path class="cls-178" d="M.09,329.54c.33-.01,.67-.02,1-.04"/><path class="cls-66" d="M3.09,329.42c67.56-3.23,125.57-40.58,188.27-62.07,54.98-18.84,110.06-14.89,165.61-.36,95.1,24.89,181.63,68.14,282.43,61.9,98.48-6.1,191.05-46.82,289.32-54.45,121.2-9.42,229.69,53.18,349.36,54.58"/><path class="cls-88" d="M1279.09,329.03c.33,0,.67,0,1,0"/></g><g><path class="cls-185" d="M.09,322.23c.33-.01,.67-.02,1-.03"/><path class="cls-181" d="M3.09,322.11c67.91-3.09,126.08-41.37,188.94-63.25,54.89-19.11,110.13-15.24,165.59-.34,94.99,25.52,180.5,69.53,281.5,63.36,99.24-6.07,192.17-48.32,291.11-56.5,121.36-10.03,228.29,55.18,347.87,56.27"/><path class="cls-129" d="M1279.09,321.66c.33,0,.67,0,1,0"/></g><g><path class="cls-97" d="M.09,315.08c.33,0,.67-.02,1-.03"/><path class="cls-49" d="M3.09,314.97c68.32-3.04,126.7-42.34,189.75-64.7,54.83-19.44,110.14-15.67,165.55-.31,94.76,26.27,179.25,71.35,280.39,65.09,100.15-6.2,193.53-50.13,293.28-59.03,57.01-5.08,110.58,3.76,165.17,19.9,59.77,17.68,117.88,37.98,180.86,38.52"/><path class="cls-130" d="M1279.09,314.45c.33,0,.67,0,1,0"/></g><g><path class="cls-91" d="M.09,308.09c.33,0,.67-.02,1-.03"/><path class="cls-96" d="M3.09,307.98c68.79-3.09,127.42-43.48,190.71-66.39,54.82-19.84,110.11-16.18,165.49-.27,94.44,27.13,177.88,73.56,279.14,67.07,101.2-6.49,195.12-52.22,295.81-61.99,56.99-5.53,110.07,3.38,164.4,20.43,59.26,18.59,116.61,39.99,179.46,40.55"/><path class="cls-151" d="M1279.09,307.39c.33,0,.67,0,1,0"/></g><g><path class="cls-24" d="M.09,301.26c.33-.01,.67-.02,1-.03"/><path class="cls-219" d="M3.09,301.14c69.32-3.22,128.23-44.77,191.79-68.3,54.84-20.3,110.03-16.76,165.41-.21,94.01,28.09,176.4,76.11,277.75,69.27,102.37-6.91,196.91-54.55,298.65-65.34,56.96-6.04,109.52,3.06,163.53,21.09,58.68,19.59,115.18,42.14,177.87,42.82"/><path class="cls-127" d="M1279.09,300.48c.33,0,.67,0,1,0"/></g><g><path class="cls-45" d="M.09,294.58c.33-.01,.67-.02,1-.04"/><path class="cls-139" d="M3.09,294.46c69.89-3.42,129.12-46.19,192.99-70.4,54.97-20.84,109.84-17.3,165.33-.13,93.61,28.96,174.72,78.98,276.25,71.67,103.65-7.47,198.89-57.09,301.78-69.04,56.92-6.61,108.93,2.77,162.56,21.87,58.03,20.66,113.6,44.44,176.1,45.3"/><path class="cls-71" d="M1279.09,293.73c.33,0,.67,0,1,0"/></g><g><path class="cls-12" d="M.09,288.06c.33-.01,.67-.02,1-.04"/><path class="cls-4" d="M3.09,287.93c70.51-3.69,130.08-47.73,194.28-72.67,55.06-21.39,109.68-18,165.23-.05,93.02,30.06,173.04,82.12,274.63,74.24,105.03-8.14,201.04-59.81,305.15-73.05,56.88-7.23,108.3,2.52,161.52,22.76,57.31,21.79,111.88,46.86,174.2,47.97"/><path class="cls-128" d="M1279.09,287.13c.33,0,.67,0,1,.01"/></g><g><path class="cls-116" d="M.09,281.69c.33-.01,.67-.03,1-.04"/><path class="cls-15" d="M3.09,281.54c71.16-4.02,131.1-49.37,195.65-75.08,55.18-21.98,109.49-18.76,165.12,.04,92.36,31.22,171.28,85.47,272.93,76.96,106.5-8.92,203.32-62.69,308.74-77.32,56.84-7.89,107.66,2.3,160.4,23.73,56.53,22.98,110.04,49.38,172.17,50.79"/><path class="cls-87" d="M1279.09,280.68c.33,0,.67,.01,1,.02"/></g><g><path class="cls-36" d="M.09,275.47c.33-.01,.67-.03,1-.05"/><path class="cls-77" d="M3.09,275.31c71.84-4.4,132.17-51.09,197.09-77.61,55.32-22.6,109.29-19.57,165,.14,91.63,32.42,169.44,89.01,271.16,79.8,108.03-9.79,205.73-65.7,312.5-81.81,56.81-8.57,107,2.1,159.22,24.78,55.7,24.2,108.09,51.99,170.03,53.74"/><path class="cls-174" d="M1279.09,274.38c.33,0,.67,.02,1,.02"/></g><g><path class="cls-148" d="M.09,269.4c.33-.02,.67-.03,1-.05"/><path class="cls-159" d="M3.09,269.23c72.55-4.83,133.27-52.88,198.59-80.24,55.47-23.24,109.07-20.42,164.88,.25,90.84,33.65,167.55,92.7,269.32,82.74,109.63-10.73,208.23-68.8,316.4-86.48,56.79-9.28,106.33,1.91,158,25.89,54.82,25.45,106.05,54.66,167.81,56.8"/><path class="cls-177" d="M1279.09,268.22c.33,0,.67,.02,1,.03"/></g><g><path class="cls-20" d="M.09,263.48c.33-.02,.67-.04,1-.06"/><path class="cls-119" d="M3.09,263.29c73.28-5.28,134.42-54.72,200.13-82.95,55.64-23.9,108.84-21.32,164.75,.36,90,34.91,165.61,96.49,267.44,85.75,111.26-11.73,210.82-71.97,320.41-91.27,56.79-10,105.67,1.73,156.74,27.05,53.9,26.72,103.93,57.39,165.53,59.94"/><path class="cls-55" d="M1279.09,262.22c.33,.01,.67,.02,1,.03"/></g><g><path class="cls-99" d="M.09,257.71c.33-.02,.67-.04,1-.06"/><path class="cls-59" d="M3.09,257.5c74.01-5.76,135.58-56.6,201.7-85.7,55.82-24.57,108.62-22.25,164.62,.48,89.12,36.18,163.62,100.34,265.53,88.82,112.92-12.77,213.45-75.18,324.49-96.15,56.8-10.73,105.01,1.55,155.46,28.24,52.94,28,101.76,60.14,163.2,63.13"/><path class="cls-144" d="M1279.09,256.35c.33,.01,.67,.03,1,.04"/></g><g><path class="cls-72" d="M.09,252.08c.33-.02,.67-.05,1-.07"/><path class="cls-212" d="M3.08,251.86c74.76-6.26,136.75-58.5,203.28-88.48,56-25.23,108.41-23.21,164.49,.6,88.1,37.4,161.71,104.41,263.6,91.9,114.6-14.07,216.1-78.4,328.61-101.08,56.84-11.46,104.36,1.37,154.17,29.44,51.95,29.27,99.54,62.91,160.86,66.35"/><path class="cls-145" d="M1279.1,250.63c.33,.02,.67,.03,1,.05"/></g><g><path class="cls-117" d="M.09,246.6c.33-.02,.67-.05,1-.08"/><path class="cls-190" d="M3.09,246.35c75.5-6.76,137.92-60.4,204.86-91.26,56.17-25.89,108.2-24.19,164.36,.71,87.17,38.65,159.68,108.3,261.68,94.99,116.27-15.17,218.78-81.61,332.72-106.01,56.89-12.18,103.74,1.18,152.88,30.64,50.94,30.53,97.31,65.68,158.51,69.56"/><path class="cls-67" d="M1279.1,245.06c.33,.02,.67,.04,1,.05"/></g><g><path class="cls-196" d="M.09,241.25c.33-.03,.66-.05,1-.08"/><path class="cls-40" d="M3.08,241c76.23-7.25,139.09-62.29,206.43-94.01,56.34-26.54,108.02-25.17,164.22,.83,86.2,39.87,157.67,112.18,259.77,98.06,117.94-16.32,221.44-84.78,336.8-110.89,56.96-12.89,103.14,.98,151.6,31.82,49.92,31.77,95.07,68.43,156.19,72.76"/><path class="cls-109" d="M1279.1,239.62c.33,.02,.66,.04,1,.06"/></g><g><path class="cls-124" d="M.09,236.05c.33-.03,.66-.06,1-.09"/><path class="cls-107" d="M3.08,235.78c76.95-7.73,140.23-64.15,207.98-96.72,56.5-27.16,107.86-26.15,164.1,.94,85.28,41.07,155.64,115.94,257.88,101.07,119.57-17.39,224.07-87.89,340.81-115.69,57.05-13.59,102.58,.77,150.34,32.98,48.9,32.98,92.84,71.13,153.91,75.89"/><path class="cls-213" d="M1279.1,234.33c.33,.02,.66,.05,1,.07"/></g><g><path class="cls-110" d="M.09,230.99c.33-.03,.66-.06,1-.09"/><path class="cls-5" d="M3.08,230.7c77.66-8.19,141.36-65.97,209.48-99.36,56.65-27.76,107.72-27.11,163.97,1.05,84.37,42.24,153.62,119.59,256.05,104.01,121.16-18.43,226.65-90.91,344.72-120.36,57.16-14.26,102.06,.53,149.12,34.09,47.88,34.14,90.65,73.78,151.69,78.95"/><path class="cls-154" d="M1279.1,229.17c.33,.03,.66,.05,1,.07"/></g><g><path class="cls-158" d="M.09,226.07c.33-.03,.67-.06,1-.1"/><path class="cls-189" d="M3.09,225.76c78.32-8.62,142.43-67.72,210.91-101.89,56.77-28.33,107.62-28.05,163.85,1.15,83.5,43.36,151.63,123.09,254.27,106.86,122.71-19.41,229.14-93.81,348.49-124.86,57.29-14.91,101.57,.28,147.94,35.14,46.89,35.26,88.51,76.36,149.56,81.91"/><path class="cls-156" d="M1279.1,224.15c.33,.03,.66,.05,1,.08"/></g><g><path class="cls-93" d="M.09,221.28c.33-.03,.67-.07,1-.1"/><path class="cls-23" d="M3.08,220.96c78.97-8.99,143.48-69.4,212.29-104.31,56.87-28.86,107.55-28.96,163.75,1.24,82.69,44.43,149.68,126.4,252.57,109.57,124.18-20.31,231.53-96.56,352.08-129.14,57.42-15.52,101.13-.01,146.82,36.12,45.92,36.31,86.43,78.86,147.52,84.73"/><path class="cls-100" d="M1279.1,219.27c.33,.03,.66,.06,1,.09"/></g><g><path class="cls-125" d="M.09,216.62c.33-.03,.66-.07,1-.1"/><path class="cls-8" d="M3.08,216.3c79.57-9.3,144.47-70.98,213.59-106.59,28.47-14.67,59.27-27.58,91.95-23.69,25.44,3.03,49.42,12.66,71.7,25.01,81.93,45.44,147.78,129.5,250.95,112.15,125.57-21.12,233.79-99.14,355.46-133.16,57.57-16.1,100.74-.33,145.77,37.01,44.98,37.3,84.45,81.24,145.61,87.4"/><path class="cls-50" d="M1279.1,214.52c.33,.03,.66,.06,1,.09"/></g><g><path class="cls-30" d="M.09,212.1c.33-.03,.66-.07,.99-.1"/><path class="cls-147" d="M3.07,211.77c80.13-9.55,145.4-72.45,214.79-108.7,28.46-14.87,59.42-28.17,92.21-24.16,25.4,3.1,49.26,12.95,71.35,25.56,81.26,46.39,145.94,132.35,249.44,114.55,126.87-21.82,235.9-101.52,358.59-136.87,57.71-16.63,100.41-.7,144.8,37.79,44.1,38.23,82.58,83.51,143.84,89.88"/><path class="cls-175" d="M1279.1,209.91c.33,.03,.66,.06,1,.09"/></g><g><path class="cls-173" d="M.09,207.71c.33-.03,.66-.07,.99-.11"/><path class="cls-160" d="M3.07,207.38c80.64-9.72,146.26-73.8,215.87-110.61,28.42-15.03,59.57-28.71,92.44-24.58,25.38,3.19,49.11,13.18,71.04,26.03,80.67,47.27,144.18,134.91,248.05,116.75,128.06-22.39,237.83-103.69,361.44-140.24,57.86-17.11,100.12-1.11,143.93,38.45,43.28,39.08,80.83,85.65,142.24,92.15"/><path class="cls-61" d="M1279.1,205.43c.33,.03,.66,.06,1,.09"/></g><g><path class="cls-142" d="M.09,203.46c.33-.03,.66-.07,.99-.11"/><path class="cls-26" d="M3.07,203.12c81.08-9.8,147.04-75,216.83-112.31,28.44-15.2,59.65-29.11,92.64-24.93,25.36,3.21,49,13.37,70.79,26.43,80.19,48.08,142.52,137.14,246.79,118.73,129.14-22.8,239.56-105.6,363.98-143.22,58-17.54,99.88-1.57,143.16,38.98,42.54,39.86,79.24,87.63,140.83,94.19"/><path class="cls-133" d="M1279.1,201.09c.33,.03,.66,.06,1,.09"/></g><g><path class="cls-183" d="M.09,199.32c.33-.03,.66-.07,.99-.1"/><path class="cls-171" d="M3.07,198.99c81.46-9.77,147.73-76.05,217.66-113.77,28.47-15.36,59.68-29.39,92.79-25.21,25.35,3.2,48.93,13.49,70.59,26.73,79.84,48.81,140.96,139.02,245.69,120.46,130.07-23.05,241.07-107.23,366.16-145.76,58.14-17.91,99.7-2.1,142.5,39.36,41.88,40.56,77.8,89.45,139.63,95.97"/><path class="cls-208" d="M1279.1,196.87c.33,.03,.66,.06,1,.09"/></g><g><path class="cls-92" d="M.09,195.32c.33-.03,.66-.07,.99-.1"/><path class="cls-18" d="M3.07,195c81.76-9.64,148.33-76.93,218.32-114.97,28.51-15.5,59.68-29.54,92.9-25.4,25.36,3.16,48.9,13.54,70.46,26.94,79.62,49.47,139.53,140.51,244.74,121.93,130.87-23.11,242.33-108.57,367.96-147.83,58.26-18.21,99.58-2.7,141.98,39.57,41.32,41.19,76.56,91.1,138.67,97.45"/><path class="cls-34" d="M1279.1,192.78c.33,.03,.66,.06,1,.09"/></g><g><path class="cls-214" d="M.09,191.44c.33-.03,.66-.06,1-.1"/><path class="cls-170" d="M3.08,191.13c81.98-9.37,148.83-77.62,218.82-115.87,28.58-15.62,59.62-29.56,92.96-25.51,25.38,3.08,48.9,13.52,70.39,27.03,79.56,50.03,138.23,141.56,243.98,123.1,131.5-22.95,243.31-109.58,369.33-149.37,26.07-8.23,51.93-14.03,78.58-5.2,24.78,8.21,45.11,26.52,63.01,44.8,40.87,41.73,75.51,92.54,137.94,98.62"/><path class="cls-135" d="M1279.1,188.82c.33,.03,.66,.06,1,.09"/></g><g><path class="cls-191" d="M.09,187.69c.33-.03,.66-.06,1-.09"/><path class="cls-28" d="M3.08,187.39c82.1-8.97,149.22-78.1,219.14-116.47,28.71-15.75,59.47-29.36,92.97-25.52,25.41,2.92,48.97,13.42,70.4,27.01,79.67,50.51,137.08,142.13,243.41,123.94,131.95-22.57,244.01-110.24,370.25-150.36,25.93-8.24,52.02-14.35,78.61-5.64,24.82,8.13,45.03,26.64,62.75,45.08,40.54,42.2,74.69,93.77,137.49,99.45"/><path class="cls-200" d="M1279.1,184.99c.33,.03,.66,.05,1,.08"/></g><g><path class="cls-9" d="M.09,183.97c.33-.03,.66-.07,.99-.11"/><path class="cls-198" d="M3.08,183.64c81.95-9.87,149.18-77.74,219.33-116,28.58-15.59,59.59-29.71,92.94-25.73,25.47,3.04,49.11,13.55,70.63,27.15,79.32,50.14,137.2,142.02,242.97,123.36,131.75-23.25,244.15-109.54,370.3-149.93,25.99-8.32,51.92-14.43,78.57-5.69,24.8,8.13,45.04,26.58,62.79,44.98,40.61,42.09,74.83,93.47,137.5,99.39"/><path class="cls-6" d="M1279.1,181.27c.33,.03,.66,.06,1,.08"/></g><g><path class="cls-63" d="M.09,179.72c.33-.04,.66-.09,.99-.13"/><path class="cls-112" d="M3.06,179.31c81.47-11.98,148.87-75.86,219.67-113.51,28.31-15.05,60.07-30.29,92.96-25.91,25.51,3.4,49.25,13.85,70.98,27.34,78.44,48.73,138.44,140.47,242.23,120.63,130.75-24.99,243.68-106.96,369.36-147.41,26.27-8.46,51.61-14.2,78.49-5.28,24.73,8.21,45.16,26.23,63.22,44.32,41.2,41.24,76.17,91.21,138.13,98.05"/><path class="cls-52" d="M1279.1,177.66c.33,.03,.66,.07,1,.1"/></g><g><path class="cls-35" d="M.09,174.87c.33-.05,.66-.1,.98-.15"/><path class="cls-141" d="M3.05,174.4c80.89-13.45,148.75-73.09,220.21-109.63,28.18-14.41,60.56-30.27,93.04-25.63,25.5,3.64,49.32,13.91,71.23,27.18,77.8,47.14,139.35,137.49,241.13,116.92,129.53-26.17,242.9-103.6,367.9-143.59,57.89-18.52,99.33-2.79,142.34,38.39,41.98,40.2,77.9,88.5,139.2,96.01"/><path class="cls-14" d="M1279.1,174.17c.33,.04,.66,.07,.99,.11"/></g><g><path class="cls-210" d="M.09,169.46c.33-.05,.66-.11,.98-.16"/><path class="cls-51" d="M3.05,168.96c80.27-14.33,148.81-69.5,220.93-104.46,28.19-13.67,61.06-29.68,93.16-24.92,25.43,3.77,49.32,13.75,71.39,26.7,77.36,45.37,139.95,133.21,239.7,112.31,128.1-26.85,241.82-99.49,365.96-138.58,57.63-18.14,99.41-2.37,143.22,37.38,42.95,38.97,79.96,85.4,140.69,93.3"/><path class="cls-123" d="M1279.1,170.81c.33,.04,.66,.08,.99,.12"/></g><g><path class="cls-39" d="M.09,163.56c.33-.06,.66-.11,.98-.17"/><path class="cls-134" d="M3.04,163.03c79.63-14.68,149.05-65.16,221.82-98.11,28.32-12.83,61.56-28.59,93.34-23.82,25.33,3.81,49.25,13.4,71.48,25.92,77.07,43.42,140.26,127.77,237.97,106.85,126.5-27.07,240.45-94.7,363.58-132.46,57.35-17.59,99.59-2.09,144.33,36.03,44.06,37.54,82.33,81.91,142.55,89.99"/><path class="cls-82" d="M1279.1,167.57c.33,.04,.66,.08,.99,.12"/></g><g><path class="cls-216" d="M.09,157.2c.33-.06,.66-.11,.98-.17"/><path class="cls-122" d="M3.04,156.67c79.01-14.54,149.43-60.13,222.84-90.67,28.55-11.88,62.06-27.04,93.55-22.35,25.19,3.75,49.12,12.87,71.49,24.87,76.89,41.27,140.32,121.26,235.96,100.63,124.76-26.9,238.83-89.26,360.8-125.33,57.09-16.88,99.87-1.93,145.65,34.38,45.29,35.91,84.98,78.07,144.77,86.12"/><path class="cls-58" d="M1279.1,164.45c.33,.04,.66,.08,.99,.12"/></g><g><path class="cls-176" d="M.09,150.44c.33-.06,.66-.11,.99-.17"/><path class="cls-42" d="M3.05,149.92c78.45-13.99,149.97-54.48,224.01-82.25,28.85-10.82,62.53-25.07,93.81-20.55,25.02,3.62,48.94,12.18,71.43,23.58,76.78,38.91,140.16,113.79,233.7,93.72,122.91-26.38,236.97-83.23,357.65-117.28,56.85-16.05,100.27-1.85,147.17,32.44,46.61,34.09,87.86,73.91,147.3,81.74"/><path class="cls-146" d="M1279.1,161.45c.33,.04,.66,.08,.99,.12"/></g><g><path class="cls-54" d="M.09,143.33c.33-.05,.66-.11,.99-.16"/><path class="cls-114" d="M3.06,142.84c77.97-13.07,150.63-48.28,225.29-72.94,29.23-9.65,62.97-22.74,94.1-18.46,24.83,3.41,48.71,11.36,71.31,22.07,76.7,36.33,139.81,105.48,231.21,86.18,120.98-25.55,234.9-76.65,354.17-108.42,56.65-15.09,100.8-1.85,148.86,30.25,48.01,32.07,90.94,69.45,150.11,76.91"/><path class="cls-89" d="M1279.1,158.56c.33,.04,.66,.08,.99,.12"/></g><g><path class="cls-74" d="M.09,135.92c.33-.05,.66-.1,.99-.15"/><path class="cls-70" d="M3.06,135.48c77.61-11.85,151.41-41.58,226.69-62.85,29.65-8.38,63.37-20.08,94.43-16.11,24.62,3.15,48.44,10.42,71.14,20.36,76.6,33.53,139.31,96.43,228.52,78.09,119-24.47,232.63-69.59,350.4-98.82,56.49-14.02,101.45-1.91,150.7,27.84,49.45,29.88,94.17,64.72,153.17,71.68"/><path class="cls-94" d="M1279.1,155.79c.33,.04,.66,.07,.99,.11"/></g><g><path class="cls-149" d="M.09,128.27c.33-.04,.66-.09,.99-.13"/><path class="cls-197" d="M3.07,127.88c77.39-10.36,152.29-34.44,228.18-52.08,30.12-7,63.71-17.14,94.78-13.52,24.39,2.84,48.15,9.39,70.93,18.48,76.42,30.5,138.69,86.74,225.66,69.51,116.98-23.17,230.18-62.08,346.37-88.58,56.38-12.86,102.24-2.03,152.68,25.24,50.92,27.54,97.53,59.76,156.44,66.1"/><path class="cls-169" d="M1279.1,153.14c.33,.03,.66,.07,1,.1"/></g><g><path class="cls-211" d="M.09,120.42c.33-.04,.66-.07,.99-.11"/><path class="cls-163" d="M3.08,120.09c77.33-8.67,153.26-26.93,229.75-40.72,30.6-5.52,63.99-13.96,95.15-10.75,24.16,2.49,47.82,8.28,70.67,16.46,76.13,27.26,138,76.51,222.65,60.53,114.96-21.7,227.57-54.2,342.13-77.8,56.33-11.61,103.17-2.2,154.77,22.47,52.4,25.06,100.96,54.58,159.9,60.22"/><path class="cls-199" d="M1279.1,150.59c.33,.03,.66,.06,1,.09"/></g><g><path class="cls-65" d="M.09,112.42c.33-.03,.66-.06,1-.09"/><path class="cls-32" d="M3.08,112.16c77.44-6.8,154.3-19.1,231.4-28.88,57.86-7.34,109.54-11.24,165.93,6.51,75.67,23.82,137.25,65.84,219.51,51.2,112.97-20.1,224.83-45.98,337.71-66.58,56.35-10.28,104.24-2.42,156.95,19.57,53.88,22.48,104.43,49.23,163.52,54.09"/><path class="cls-64" d="M1279.1,148.15c.33,.03,.66,.05,1,.08"/></g><g><path class="cls-102" d="M.09,104.33c.33-.02,.67-.04,1-.06"/><path class="cls-180" d="M3.09,104.15c77.75-4.79,155.4-11.03,233.1-16.66,57.01-4.13,110.23-7.71,166.02,7.33,34.38,9.27,67.04,23.55,101.01,34.05,39.31,12.15,74.79,14.27,115.27,7.56,111.03-18.41,221.96-37.49,333.14-54.99,56.44-8.89,105.44-2.7,159.21,16.56,55.33,19.82,107.89,43.74,167.26,47.77"/><path class="cls-85" d="M1279.1,145.83c.33,.02,.67,.04,1,.06"/></g><g><path class="cls-84" d="M.09,96.19c.33-.01,.67-.02,1-.03"/><path class="cls-108" d="M3.09,96.09c78.25-2.67,156.56-2.77,234.83-4.16,56.21-1,110.8-4.13,166.11,8.19,33.77,7.52,66.31,19.38,99.84,27.77,38.71,9.68,73.85,10.05,113.13,4.05,109.17-16.68,218.99-28.78,328.47-43.15,56.6-7.43,106.77-3.03,161.53,13.47,56.77,17.11,111.31,38.14,171.09,41.3"/><path class="cls-44" d="M1279.1,143.61c.33,.02,.67,.03,1,.05"/></g><g><path class="cls-33" d="M.09,88.07c.33,0,.67,0,1,0"/><path class="cls-192" d="M3.1,88.05c78.93-.47,157.75,5.61,236.59,8.53,55.63,2.06,111.12-.56,166.19,9.05,33.18,5.79,65.58,15.17,98.66,21.4,37.99,7.15,72.86,5.79,110.96,.49,107.41-14.93,215.93-19.92,323.74-31.14,56.81-5.91,108.22-3.42,163.88,10.32,58.18,14.37,114.66,32.48,174.98,34.75"/><path class="cls-76" d="M1279.09,141.49c.33,.01,.67,.02,1,.03"/></g><g><path class="cls-79" d="M.09,80c.33,0,.67,.01,1,.02"/><path class="cls-126" d="M3.09,80.06c79.79,1.79,158.99,14.05,238.38,21.29,55.37,5.05,111.08,3.01,166.27,9.93,32.63,4.09,64.83,10.97,97.46,15,37.17,4.6,71.82,1.52,108.78-3.08,105.79-13.18,212.8-10.96,318.97-19.05,57.08-4.34,109.78-3.87,166.25,7.16,59.57,11.63,117.9,26.78,178.9,28.14"/><path class="cls-179" d="M1279.09,139.48c.33,0,.67,.01,1,.02"/></g><g><path class="cls-131" d="M.09,72.04c.33,.02,.67,.03,1,.05"/><path class="cls-41" d="M3.09,72.18c80.79,4.08,160.25,22.49,240.15,34.04,55.5,8.02,110.64,6.6,166.35,10.8,32.13,2.42,64.1,6.79,96.27,8.61,36.26,2.05,70.68-2.71,106.6-6.65,104.31-11.46,209.61-1.98,314.21-6.98,57.37-2.74,111.45-4.37,168.61,4,60.92,8.92,121.01,21.09,182.8,21.55"/><path class="cls-140" d="M1279.09,137.56c.33,0,.67,0,1,0"/></g><g><path class="cls-105" d="M.09,64.23c.33,.02,.66,.05,1,.07"/><path class="cls-161" d="M3.08,64.46c81.93,6.35,161.54,30.87,241.92,46.66,55.94,10.99,109.86,10.23,166.43,11.66,31.69,.8,63.39,2.67,95.09,2.28,35.32-.44,69.42-6.86,104.44-10.19,102.99-9.81,206.39,6.98,309.5,4.98,57.67-1.11,113.21-4.92,170.95,.88,62.24,6.25,123.97,15.46,186.67,15.03"/><path class="cls-121" d="M1279.09,135.75c.33,0,.67,0,1,0"/></g><g><path class="cls-83" d="M.09,56.64c.33,.03,.66,.06,.99,.1"/><path class="cls-188" d="M3.08,56.94c82.43,8.49,161.47,38.62,241.52,58.54,32.12,7.99,65.2,16.28,98.51,15.06,22.66-.83,45.33-1.41,67.99-1.97,33.39-.82,66.84-1.41,100.12-4.35,33.01-2.92,65.33-10.66,98.31-13.3,102.85-8.24,205.02,16.28,307.74,16.73,57.61,.25,114.19-5.47,172.02-2.11,62.96,3.66,125.67,9.8,188.81,8.52"/><path class="cls-118" d="M1279.09,134.04c.33,0,.67-.01,1-.02"/></g><g><path class="cls-31" d="M.09,49.31c.33,.04,.66,.08,.99,.12"/><path class="cls-75" d="M3.07,49.68c83.73,10.61,162.78,46.59,243.2,70.52,31.8,9.46,65.41,19.97,98.93,18.22,22.58-1.18,45.15-2.46,67.7-4.1,33.09-2.41,66.14-5.61,98.92-10.83,32.12-5.11,63.8-14.25,96.3-16.41,101.9-6.77,201.75,25.1,303.2,28.26,57.91,1.8,116.12-6.25,174.31-5.22,64.18,1.14,128.27,4.43,192.46,2.33"/><path class="cls-27" d="M1279.09,132.42c.33-.01,.67-.02,1-.03"/></g><g><path class="cls-19" d="M.09,42.3c.33,.05,.66,.09,.99,.14"/><path class="cls-1" d="M3.06,42.72c85.07,12.6,164.1,54.31,244.81,82.08,31.43,10.81,65.59,23.48,99.34,21.24,22.52-1.5,45.02-3.44,67.43-6.12,32.89-3.94,65.49-9.68,97.77-17.11,31.29-7.2,62.13-17.68,94.34-19.42,101.13-5.44,198.52,33.71,298.83,39.39,58.17,3.29,118.08-7.05,176.52-8.21,65.34-1.29,130.69-.78,195.99-3.63"/><path class="cls-207" d="M1279.09,130.89c.33-.01,.67-.03,1-.04"/></g><g><path class="cls-165" d="M.09,35.64c.33,.05,.66,.1,.98,.16"/><path class="cls-195" d="M3.05,36.12c86.43,14.4,165.41,61.72,246.35,93.12,31.04,12.04,65.74,26.76,99.72,24.07,22.49-1.78,44.93-4.34,67.2-8.02,32.78-5.41,64.9-13.57,96.68-23.14,30.5-9.18,60.35-20.93,92.46-22.29,100.58-4.28,195.32,42.13,294.66,50.03,58.44,4.65,120.03-7.85,178.63-11.04,66.42-3.61,132.91-5.8,199.34-9.33"/><path class="cls-101" d="M1279.1,129.46c.33-.02,.67-.04,1-.05"/></g><g><path class="cls-172" d="M.09,29.4c.33,.06,.66,.11,.99,.17"/><path class="cls-113" d="M3.05,29.93c87.78,15.97,166.71,68.76,247.81,103.54,30.67,13.16,65.84,29.76,100.08,26.68,22.49-2.02,44.89-5.16,67.01-9.76,32.74-6.81,64.37-17.26,95.68-28.87,29.72-11.03,58.54-23.95,90.65-25.02,100.16-3.32,192.24,50.05,290.71,60.08,58.67,5.98,121.94-8.64,180.6-13.68,67.43-5.8,134.95-10.6,202.51-14.71"/><path class="cls-168" d="M1279.1,128.12c.33-.02,.67-.04,1-.06"/></g><g><path class="cls-46" d="M.09,23.63c.33,.06,.66,.12,.98,.18"/><path class="cls-11" d="M3.04,24.18c89.1,17.25,167.99,75.36,249.16,113.25,30.35,14.17,65.87,32.43,100.4,29.04,22.51-2.21,44.9-5.87,66.86-11.32,32.78-8.14,63.92-20.72,94.77-34.27,28.96-12.71,56.74-26.72,88.95-27.56,99.89-2.61,189.31,57.53,287.05,69.46,28.61,3.49,56.35-1.35,84.81-4.68,32.54-3.81,65.08-7.69,97.62-11.43,68.35-7.85,136.78-15.16,205.44-19.73"/><path class="cls-60" d="M1279.1,126.88c.33-.02,.67-.04,1-.07"/></g><g><path class="cls-138" d="M.09,18.37c.33,.06,.65,.12,.98,.19"/><path class="cls-37" d="M3.04,18.94c90.36,18.16,169.24,81.46,250.4,122.13,30.11,15.09,65.83,34.73,100.69,31.11,22.56-2.34,44.95-6.46,66.78-12.68,32.87-9.37,63.54-23.94,93.96-39.28,28.2-14.22,55.03-29.2,87.35-29.9,99.76-2.17,186.55,64.51,283.69,78.06,28.7,4,56.53-.94,85.07-4.64,33.04-4.29,66.03-9,99.02-13.65,69.17-9.75,138.38-19.43,208.1-24.32"/><path class="cls-68" d="M1279.1,125.72c.33-.02,.67-.05,1-.07"/></g><g><path class="cls-167" d="M.09,13.68c.33,.06,.65,.13,.98,.19"/><path class="cls-201" d="M3.04,14.26c91.53,18.65,170.47,87,251.5,130.1,29.95,15.93,65.7,36.6,100.94,32.86,22.64-2.4,45.05-6.91,66.75-13.81,33.02-10.49,63.25-26.87,93.27-43.85,27.47-15.54,53.44-31.35,85.87-32.01,99.75-2.04,184.02,70.92,280.68,85.79,59.44,9.15,126.88-10.56,185.57-20.2,69.88-11.47,139.77-23.4,210.47-28.43"/><path class="cls-164" d="M1279.1,124.64c.33-.02,.67-.05,1-.07"/></g><g><path class="cls-2" d="M.09,9.6c.33,.06,.66,.12,.98,.19"/><path class="cls-136" d="M3.04,10.18c43.35,8.86,81.8,32.09,119.25,54.9,44.54,27.13,87.66,56.69,133.22,82.15,29.91,16.72,65.48,38,101.15,34.26,22.73-2.39,45.19-7.21,66.79-14.68,33.2-11.48,63.04-29.49,92.71-47.95,26.77-16.65,52-33.13,84.53-33.87,99.82-2.27,181.75,76.7,278.05,92.57,59.79,9.85,128.1-10.95,186.84-21.8,70.46-13.01,140.94-27.04,212.52-32.03"/><path class="cls-104" d="M1279.1,123.66c.33-.02,.67-.05,1-.07"/></g><g><path class="cls-218" d="M.09,6.2c.33,.06,.66,.12,.98,.18"/><path class="cls-215" d="M3.04,6.75C46.82,15.37,85.28,39.83,122.54,63.51c44.74,28.44,87.91,59.46,133.77,86.12,30.01,17.45,65.17,38.87,101.31,35.25,22.84-2.29,45.37-7.34,66.91-15.28,33.42-12.32,62.91-31.77,92.3-51.51,26.14-17.56,50.76-34.51,83.33-35.45,99.95-2.88,179.78,81.79,275.85,98.28,60.19,10.33,129.04-11.15,187.88-23.06,70.91-14.35,141.85-30.33,214.21-35.05"/><path class="cls-22" d="M1279.09,122.75c.33-.02,.67-.04,1-.06"/></g><g><path class="cls-132" d="M.09,3.51c.33,.05,.66,.11,.99,.17"/><path class="cls-38" d="M3.05,4.02C47.21,12.11,85.68,37.66,122.7,62.02c44.91,29.55,88.1,61.84,134.23,89.5,30.25,18.14,64.76,39.16,101.41,35.82,22.97-2.09,45.59-7.27,67.12-15.57,33.67-12.99,62.88-33.68,92.04-54.5,25.58-18.27,49.74-35.46,82.3-36.73,100.13-3.93,178.17,86.12,274.11,102.84,60.67,10.57,129.65-11.13,188.67-23.96,71.21-15.48,142.53-33.24,215.51-37.44"/><path class="cls-184" d="M1279.09,121.93c.33-.02,.67-.04,1-.05"/></g><g><path class="cls-120" d="M.09,1.59c.33,.05,.66,.1,.99,.14"/><path class="cls-90" d="M3.06,2.05c44.46,7.23,82.96,33.74,119.71,58.57,45.04,30.44,88.22,63.79,134.61,92.22,30.66,18.79,64.27,38.82,101.46,35.93,23.11-1.8,45.86-6.98,67.41-15.53,33.94-13.46,62.95-35.17,91.95-56.86,25.11-18.77,48.98-35.93,81.44-37.68,100.34-5.43,176.94,89.64,272.87,106.16,61.2,10.54,129.91-10.86,189.2-24.46,71.35-16.37,142.94-35.76,216.39-39.16"/><path class="cls-62" d="M1279.09,121.19c.33-.01,.67-.03,1-.04"/></g><g><path class="cls-73" d="M.09,.5c.33,.04,.66,.08,.99,.12"/><path class="cls-57" d="M3.07,.87C47.74,6.9,86.3,34.2,122.74,59.3c45.15,31.09,88.28,65.3,134.89,94.25,31.25,19.41,63.72,37.8,101.45,35.54,23.26-1.39,46.16-6.47,67.79-15.14,34.24-13.73,63.11-36.23,92.04-58.56,24.73-19.08,48.51-35.9,80.76-38.28,100.54-7.42,176.15,92.26,272.16,108.13,61.78,10.21,129.79-10.3,189.43-24.54,71.32-17.03,143.11-37.87,216.81-40.15"/><path class="cls-13" d="M1279.09,120.52c.33,0,.67-.02,1-.03"/></g></g></g></svg>